<svg width="12" height="12" viewBox="0 0 12 12" fill="none" xmlns="http://www.w3.org/2000/svg">
<path d="M5.43623 4.2871C5.43623 4.5664 5.43623 4.8371 5.52432 5.09061C4.59834 6.17772 2.15342 9.05018 1.92568 9.26933C1.88042 9.30993 1.84421 9.35962 1.81941 9.41514C1.79461 9.47066 1.78178 9.53078 1.78174 9.59159C1.78174 9.77421 1.89346 9.95038 1.98799 10.0492C2.12979 10.1974 2.73564 10.7582 2.84736 10.6508C3.17822 10.3285 3.24482 10.2426 3.38018 10.1094C3.58428 9.90956 3.35869 9.50136 3.42959 9.33593C3.50049 9.1705 3.57568 9.13827 3.69814 9.11249C3.82061 9.08671 4.0376 9.17479 4.20732 9.17694C4.38564 9.17909 4.48232 9.1039 4.61553 8.97929C4.72295 8.88046 4.80029 8.78807 4.80244 8.64413C4.80674 8.45077 4.52744 8.19511 4.73584 7.991C4.94424 7.7869 5.24502 8.12421 5.46631 8.09843C5.6876 8.07265 5.95615 7.76542 5.98408 7.63436C6.01201 7.50331 5.73271 7.166 5.77568 6.97479C5.79072 6.91034 5.92178 6.75995 6.02061 6.73847C6.11943 6.71698 6.55771 6.88671 6.65654 6.86522C6.77685 6.83944 6.9165 6.71268 7.03037 6.64179C7.36338 6.78573 7.66631 6.84374 8.05518 6.84374C9.52685 6.84374 10.7192 5.69647 10.7192 4.2828C10.7192 2.86913 9.52685 1.72681 8.05518 1.72681C6.5835 1.72681 5.43623 2.87343 5.43623 4.2871ZM9.34424 3.78931C9.34424 3.92528 9.30392 4.0582 9.22837 4.17126C9.15283 4.28432 9.04546 4.37244 8.91983 4.42447C8.79421 4.47651 8.65598 4.49012 8.52261 4.4636C8.38925 4.43707 8.26675 4.37159 8.1706 4.27544C8.07445 4.17929 8.00898 4.05679 7.98245 3.92343C7.95592 3.79007 7.96954 3.65184 8.02157 3.52621C8.07361 3.40059 8.16172 3.29321 8.27478 3.21767C8.38784 3.14213 8.52076 3.10181 8.65674 3.10181C8.83907 3.10181 9.01394 3.17424 9.14287 3.30317C9.2718 3.4321 9.34424 3.60697 9.34424 3.78931Z" fill="white"/>
</svg>
