<svg width="12" height="12" viewBox="0 0 12 12" fill="none" xmlns="http://www.w3.org/2000/svg">
<g clip-path="url(#clip0_2007_788)">
<path d="M9.72247 3.62298C9.73545 3.61541 9.74621 3.60458 9.75369 3.59155C9.76117 3.57853 9.76511 3.56377 9.76511 3.54875C9.76511 3.53373 9.76117 3.51898 9.75369 3.50595C9.74621 3.49293 9.73545 3.48209 9.72247 3.47452L6.44095 1.568C6.23098 1.4463 5.9926 1.3822 5.74991 1.3822C5.50722 1.3822 5.26883 1.4463 5.05886 1.568L1.77798 3.47452C1.76501 3.48209 1.75425 3.49293 1.74677 3.50595C1.73929 3.51898 1.73535 3.53373 1.73535 3.54875C1.73535 3.56377 1.73929 3.57853 1.74677 3.59155C1.75425 3.60458 1.76501 3.61541 1.77798 3.62298L5.70704 5.93427C5.72026 5.94205 5.73532 5.94616 5.75066 5.94616C5.766 5.94616 5.78105 5.94205 5.79427 5.93427L9.72247 3.62298Z" fill="white"/>
<path d="M1.41016 4.20732C1.39705 4.19975 1.38218 4.19578 1.36705 4.1958C1.35192 4.19583 1.33706 4.19984 1.32398 4.20745C1.3109 4.21506 1.30006 4.22599 1.29256 4.23913C1.28505 4.25227 1.28115 4.26716 1.28125 4.2823V8.01821C1.28158 8.19825 1.32903 8.37506 1.41888 8.53106C1.50874 8.68707 1.63787 8.81683 1.79344 8.90745L5.27735 10.9964C5.2904 11.0039 5.30521 11.0079 5.32029 11.0079C5.33537 11.0079 5.35018 11.0039 5.36325 10.9964C5.37631 10.9889 5.38716 10.978 5.39471 10.965C5.40225 10.9519 5.40624 10.9371 5.40625 10.922V6.58757C5.40624 6.5725 5.40226 6.5577 5.39472 6.54465C5.38717 6.5316 5.37633 6.52077 5.36328 6.51323L1.41016 4.20732Z" fill="white"/>
<path d="M6.09375 6.6026V10.921C6.09377 10.936 6.09775 10.9508 6.1053 10.9639C6.11285 10.977 6.1237 10.9878 6.13676 10.9953C6.14982 11.0029 6.16463 11.0068 6.17971 11.0068C6.19479 11.0068 6.2096 11.0028 6.22266 10.9953L9.70635 8.90637C9.8618 8.81587 9.99087 8.68629 10.0808 8.53049C10.1706 8.37468 10.2182 8.19808 10.2187 8.01821V4.28229C10.2187 4.26723 10.2147 4.25245 10.2071 4.23943C10.1996 4.22641 10.1887 4.2156 10.1756 4.20809C10.1626 4.20059 10.1478 4.19664 10.1327 4.19666C10.1177 4.19667 10.1029 4.20064 10.0898 4.20817L6.13672 6.52848C6.1237 6.536 6.11288 6.5468 6.10534 6.55981C6.0978 6.57281 6.0938 6.58757 6.09375 6.6026Z" fill="white"/>
</g>
<defs>
<clipPath id="clip0_2007_788">
<rect width="11" height="11" fill="white" transform="translate(0.25 0.69519)"/>
</clipPath>
</defs>
</svg>
