<svg width="36" height="35" viewBox="0 0 36 35" fill="none" xmlns="http://www.w3.org/2000/svg">
<rect x="0.5" width="35" height="35" rx="12" fill="white"/>
<path d="M18 26.5C22.9688 26.5 27 22.4688 27 17.5C27 12.5313 22.9688 8.5 18 8.5C13.0313 8.5 9 12.5313 9 17.5C9 22.4688 13.0313 26.5 18 26.5ZM18.2813 12.25C18.4667 12.25 18.6479 12.305 18.8021 12.408C18.9563 12.511 19.0764 12.6574 19.1474 12.8287C19.2183 13 19.2369 13.1885 19.2007 13.3704C19.1646 13.5523 19.0753 13.7193 18.9442 13.8504C18.8131 13.9815 18.646 14.0708 18.4641 14.107C18.2823 14.1432 18.0938 14.1246 17.9225 14.0536C17.7512 13.9827 17.6048 13.8625 17.5017 13.7084C17.3987 13.5542 17.3438 13.3729 17.3438 13.1875C17.3438 12.9389 17.4425 12.7004 17.6183 12.5246C17.7942 12.3488 18.0326 12.25 18.2813 12.25ZM16.7138 17.0313C17.4736 16.5213 17.5781 16.0539 17.5781 15.625C17.5781 15.451 17.6473 15.284 17.7703 15.161C17.8934 15.0379 18.0603 14.9688 18.2344 14.9688C18.4084 14.9688 18.5753 15.0379 18.6984 15.161C18.8215 15.284 18.8906 15.451 18.8906 15.625C18.8906 16.652 18.4181 17.4686 17.4459 18.1216C16.5422 18.7281 16.0313 19.1125 16.0313 19.9577C16.0313 20.5323 16.3594 20.9688 17.0386 21.2917C17.1984 21.3677 17.5542 21.4417 17.992 21.4366C18.5414 21.4295 18.968 21.2983 19.2966 21.0339C19.9163 20.5352 19.9688 19.9923 19.9688 19.9844C19.9729 19.8982 19.994 19.8137 20.0308 19.7356C20.0676 19.6576 20.1195 19.5876 20.1833 19.5296C20.2472 19.4716 20.3219 19.4268 20.4031 19.3976C20.4843 19.3685 20.5705 19.3556 20.6566 19.3598C20.7428 19.3639 20.8273 19.385 20.9054 19.4218C20.9834 19.4586 21.0534 19.5105 21.1114 19.5744C21.1694 19.6382 21.2143 19.7129 21.2434 19.7941C21.2725 19.8753 21.2854 19.9615 21.2813 20.0477C21.2761 20.1616 21.1969 21.1877 20.1202 22.0539C19.5619 22.503 18.8517 22.7364 18.0108 22.7467C17.4155 22.7538 16.8563 22.653 16.477 22.4739C15.3422 21.9372 14.7188 21.0423 14.7188 19.9577C14.7188 18.3719 15.7786 17.6598 16.7138 17.0313Z" fill="#0075FF"/>
</svg>
