<svg width="12" height="12" viewBox="0 0 12 12" fill="none" xmlns="http://www.w3.org/2000/svg">
<g clip-path="url(#clip0_2007_780)">
<path d="M7.39658 2.08253C6.9785 1.63114 6.39455 1.38257 5.75002 1.38257C5.10205 1.38257 4.51617 1.62964 4.10002 2.07823C3.67936 2.53177 3.4744 3.14815 3.52252 3.81374C3.61791 5.12686 4.61715 6.19507 5.75002 6.19507C6.88289 6.19507 7.88041 5.12708 7.9773 3.81417C8.02607 3.1546 7.81982 2.5395 7.39658 2.08253Z" fill="white"/>
<path d="M9.53137 11.0071H1.96887C1.86989 11.0084 1.77186 10.9876 1.68192 10.9462C1.59198 10.9048 1.51239 10.8439 1.44895 10.768C1.3093 10.601 1.25301 10.3731 1.29469 10.1425C1.47602 9.13665 2.04192 8.29167 2.93137 7.69849C3.72157 7.1719 4.72252 6.88208 5.75012 6.88208C6.77772 6.88208 7.77867 7.17212 8.56887 7.69849C9.45832 8.29145 10.0242 9.13643 10.2055 10.1423C10.2472 10.3729 10.1909 10.6008 10.0513 10.7677C9.98787 10.8438 9.90829 10.9047 9.81835 10.9461C9.72841 10.9875 9.63037 11.0083 9.53137 11.0071V11.0071Z" fill="white"/>
</g>
<defs>
<clipPath id="clip0_2007_780">
<rect width="11" height="11" fill="white" transform="translate(0.250244 0.69519)"/>
</clipPath>
</defs>
</svg>
