<svg width="12" height="12" viewBox="0 0 12 12" fill="none" xmlns="http://www.w3.org/2000/svg">
<path d="M6.25 1.72595C3.78596 1.72595 1.78125 3.73066 1.78125 6.1947C1.78125 8.65874 3.78596 10.6635 6.25 10.6635C8.71404 10.6635 10.7187 8.65874 10.7187 6.1947C10.7187 3.73066 8.71404 1.72595 6.25 1.72595ZM5.17105 4.23576C5.44326 3.94722 5.82633 3.78845 6.25 3.78845C6.67367 3.78845 7.0533 3.9483 7.32658 4.23833C7.60351 4.53224 7.73822 4.92712 7.70643 5.35165C7.64283 6.1947 6.98971 6.8822 6.25 6.8822C5.51029 6.8822 4.85588 6.1947 4.79357 5.35144C4.76199 4.92347 4.89648 4.5273 5.17105 4.23576ZM6.25 9.97595C5.74522 9.97628 5.24551 9.87525 4.7805 9.67884C4.3155 9.48243 3.89467 9.19465 3.54297 8.83255C3.7444 8.5453 4.00105 8.30106 4.29793 8.11412C4.84557 7.76306 5.53865 7.5697 6.25 7.5697C6.96135 7.5697 7.65443 7.76306 8.20143 8.11412C8.49855 8.30098 8.75543 8.54522 8.95703 8.83255C8.60536 9.19469 8.18454 9.4825 7.71953 9.67891C7.25451 9.87532 6.75479 9.97633 6.25 9.97595Z" fill="white"/>
</svg>
